<?xml version="1.0" encoding="utf-8" standalone="no"?>
<!DOCTYPE svg PUBLIC "-//W3C//DTD SVG 1.1//EN"
  "http://www.w3.org/Graphics/SVG/1.1/DTD/svg11.dtd">
<!-- Created with matplotlib (https://matplotlib.org/) -->
<svg height="432pt" version="1.1" viewBox="0 0 864 432" width="864pt" xmlns="http://www.w3.org/2000/svg" xmlns:xlink="http://www.w3.org/1999/xlink">
 <defs>
  <style type="text/css">
*{stroke-linecap:butt;stroke-linejoin:round;}
  </style>
 </defs>
 <g id="figure_1">
  <g id="patch_1">
   <path d="M 0 432 
L 864 432 
L 864 0 
L 0 0 
z
" style="fill:#ffffff;"/>
  </g>
  <g id="axes_1">
   <g id="patch_2">
    <path d="M 108 378 
L 777.6 378 
L 777.6 51.84 
L 108 51.84 
z
" style="fill:#ffffff;"/>
   </g>
   <g id="matplotlib.axis_1">
    <g id="xtick_1">
     <g id="line2d_1">
      <defs>
       <path d="M 0 0 
L 0 3.5 
" id="mc7d3997b57" style="stroke:#000000;stroke-width:0.8;"/>
      </defs>
      <g>
       <use style="stroke:#000000;stroke-width:0.8;" x="138.436364" xlink:href="#mc7d3997b57" y="378"/>
      </g>
     </g>
     <g id="text_1">
      <!-- 0 -->
      <defs>
       <path d="M 31.78125 66.40625 
Q 24.171875 66.40625 20.328125 58.90625 
Q 16.5 51.421875 16.5 36.375 
Q 16.5 21.390625 20.328125 13.890625 
Q 24.171875 6.390625 31.78125 6.390625 
Q 39.453125 6.390625 43.28125 13.890625 
Q 47.125 21.390625 47.125 36.375 
Q 47.125 51.421875 43.28125 58.90625 
Q 39.453125 66.40625 31.78125 66.40625 
z
M 31.78125 74.21875 
Q 44.046875 74.21875 50.515625 64.515625 
Q 56.984375 54.828125 56.984375 36.375 
Q 56.984375 17.96875 50.515625 8.265625 
Q 44.046875 -1.421875 31.78125 -1.421875 
Q 19.53125 -1.421875 13.0625 8.265625 
Q 6.59375 17.96875 6.59375 36.375 
Q 6.59375 54.828125 13.0625 64.515625 
Q 19.53125 74.21875 31.78125 74.21875 
z
" id="DejaVuSans-48"/>
      </defs>
      <g transform="translate(132.710114 398.677188)scale(0.18 -0.18)">
       <use xlink:href="#DejaVuSans-48"/>
      </g>
     </g>
    </g>
    <g id="xtick_2">
     <g id="line2d_2">
      <g>
       <use style="stroke:#000000;stroke-width:0.8;" x="214.622505" xlink:href="#mc7d3997b57" y="378"/>
      </g>
     </g>
     <g id="text_2">
      <!-- 100 -->
      <defs>
       <path d="M 12.40625 8.296875 
L 28.515625 8.296875 
L 28.515625 63.921875 
L 10.984375 60.40625 
L 10.984375 69.390625 
L 28.421875 72.90625 
L 38.28125 72.90625 
L 38.28125 8.296875 
L 54.390625 8.296875 
L 54.390625 0 
L 12.40625 0 
z
" id="DejaVuSans-49"/>
      </defs>
      <g transform="translate(197.443755 398.677188)scale(0.18 -0.18)">
       <use xlink:href="#DejaVuSans-49"/>
       <use x="63.623047" xlink:href="#DejaVuSans-48"/>
       <use x="127.246094" xlink:href="#DejaVuSans-48"/>
      </g>
     </g>
    </g>
    <g id="xtick_3">
     <g id="line2d_3">
      <g>
       <use style="stroke:#000000;stroke-width:0.8;" x="290.808647" xlink:href="#mc7d3997b57" y="378"/>
      </g>
     </g>
     <g id="text_3">
      <!-- 200 -->
      <defs>
       <path d="M 19.1875 8.296875 
L 53.609375 8.296875 
L 53.609375 0 
L 7.328125 0 
L 7.328125 8.296875 
Q 12.9375 14.109375 22.625 23.890625 
Q 32.328125 33.6875 34.8125 36.53125 
Q 39.546875 41.84375 41.421875 45.53125 
Q 43.3125 49.21875 43.3125 52.78125 
Q 43.3125 58.59375 39.234375 62.25 
Q 35.15625 65.921875 28.609375 65.921875 
Q 23.96875 65.921875 18.8125 64.3125 
Q 13.671875 62.703125 7.8125 59.421875 
L 7.8125 69.390625 
Q 13.765625 71.78125 18.9375 73 
Q 24.125 74.21875 28.421875 74.21875 
Q 39.75 74.21875 46.484375 68.546875 
Q 53.21875 62.890625 53.21875 53.421875 
Q 53.21875 48.921875 51.53125 44.890625 
Q 49.859375 40.875 45.40625 35.40625 
Q 44.1875 33.984375 37.640625 27.21875 
Q 31.109375 20.453125 19.1875 8.296875 
z
" id="DejaVuSans-50"/>
      </defs>
      <g transform="translate(273.629897 398.677188)scale(0.18 -0.18)">
       <use xlink:href="#DejaVuSans-50"/>
       <use x="63.623047" xlink:href="#DejaVuSans-48"/>
       <use x="127.246094" xlink:href="#DejaVuSans-48"/>
      </g>
     </g>
    </g>
    <g id="xtick_4">
     <g id="line2d_4">
      <g>
       <use style="stroke:#000000;stroke-width:0.8;" x="366.994789" xlink:href="#mc7d3997b57" y="378"/>
      </g>
     </g>
     <g id="text_4">
      <!-- 300 -->
      <defs>
       <path d="M 40.578125 39.3125 
Q 47.65625 37.796875 51.625 33 
Q 55.609375 28.21875 55.609375 21.1875 
Q 55.609375 10.40625 48.1875 4.484375 
Q 40.765625 -1.421875 27.09375 -1.421875 
Q 22.515625 -1.421875 17.65625 -0.515625 
Q 12.796875 0.390625 7.625 2.203125 
L 7.625 11.71875 
Q 11.71875 9.328125 16.59375 8.109375 
Q 21.484375 6.890625 26.8125 6.890625 
Q 36.078125 6.890625 40.9375 10.546875 
Q 45.796875 14.203125 45.796875 21.1875 
Q 45.796875 27.640625 41.28125 31.265625 
Q 36.765625 34.90625 28.71875 34.90625 
L 20.21875 34.90625 
L 20.21875 43.015625 
L 29.109375 43.015625 
Q 36.375 43.015625 40.234375 45.921875 
Q 44.09375 48.828125 44.09375 54.296875 
Q 44.09375 59.90625 40.109375 62.90625 
Q 36.140625 65.921875 28.71875 65.921875 
Q 24.65625 65.921875 20.015625 65.03125 
Q 15.375 64.15625 9.8125 62.3125 
L 9.8125 71.09375 
Q 15.4375 72.65625 20.34375 73.4375 
Q 25.25 74.21875 29.59375 74.21875 
Q 40.828125 74.21875 47.359375 69.109375 
Q 53.90625 64.015625 53.90625 55.328125 
Q 53.90625 49.265625 50.4375 45.09375 
Q 46.96875 40.921875 40.578125 39.3125 
z
" id="DejaVuSans-51"/>
      </defs>
      <g transform="translate(349.816039 398.677188)scale(0.18 -0.18)">
       <use xlink:href="#DejaVuSans-51"/>
       <use x="63.623047" xlink:href="#DejaVuSans-48"/>
       <use x="127.246094" xlink:href="#DejaVuSans-48"/>
      </g>
     </g>
    </g>
    <g id="xtick_5">
     <g id="line2d_5">
      <g>
       <use style="stroke:#000000;stroke-width:0.8;" x="443.180931" xlink:href="#mc7d3997b57" y="378"/>
      </g>
     </g>
     <g id="text_5">
      <!-- 400 -->
      <defs>
       <path d="M 37.796875 64.3125 
L 12.890625 25.390625 
L 37.796875 25.390625 
z
M 35.203125 72.90625 
L 47.609375 72.90625 
L 47.609375 25.390625 
L 58.015625 25.390625 
L 58.015625 17.1875 
L 47.609375 17.1875 
L 47.609375 0 
L 37.796875 0 
L 37.796875 17.1875 
L 4.890625 17.1875 
L 4.890625 26.703125 
z
" id="DejaVuSans-52"/>
      </defs>
      <g transform="translate(426.002181 398.677188)scale(0.18 -0.18)">
       <use xlink:href="#DejaVuSans-52"/>
       <use x="63.623047" xlink:href="#DejaVuSans-48"/>
       <use x="127.246094" xlink:href="#DejaVuSans-48"/>
      </g>
     </g>
    </g>
    <g id="xtick_6">
     <g id="line2d_6">
      <g>
       <use style="stroke:#000000;stroke-width:0.8;" x="519.367072" xlink:href="#mc7d3997b57" y="378"/>
      </g>
     </g>
     <g id="text_6">
      <!-- 500 -->
      <defs>
       <path d="M 10.796875 72.90625 
L 49.515625 72.90625 
L 49.515625 64.59375 
L 19.828125 64.59375 
L 19.828125 46.734375 
Q 21.96875 47.46875 24.109375 47.828125 
Q 26.265625 48.1875 28.421875 48.1875 
Q 40.625 48.1875 47.75 41.5 
Q 54.890625 34.8125 54.890625 23.390625 
Q 54.890625 11.625 47.5625 5.09375 
Q 40.234375 -1.421875 26.90625 -1.421875 
Q 22.3125 -1.421875 17.546875 -0.640625 
Q 12.796875 0.140625 7.71875 1.703125 
L 7.71875 11.625 
Q 12.109375 9.234375 16.796875 8.0625 
Q 21.484375 6.890625 26.703125 6.890625 
Q 35.15625 6.890625 40.078125 11.328125 
Q 45.015625 15.765625 45.015625 23.390625 
Q 45.015625 31 40.078125 35.4375 
Q 35.15625 39.890625 26.703125 39.890625 
Q 22.75 39.890625 18.8125 39.015625 
Q 14.890625 38.140625 10.796875 36.28125 
z
" id="DejaVuSans-53"/>
      </defs>
      <g transform="translate(502.188322 398.677188)scale(0.18 -0.18)">
       <use xlink:href="#DejaVuSans-53"/>
       <use x="63.623047" xlink:href="#DejaVuSans-48"/>
       <use x="127.246094" xlink:href="#DejaVuSans-48"/>
      </g>
     </g>
    </g>
    <g id="xtick_7">
     <g id="line2d_7">
      <g>
       <use style="stroke:#000000;stroke-width:0.8;" x="595.553214" xlink:href="#mc7d3997b57" y="378"/>
      </g>
     </g>
     <g id="text_7">
      <!-- 600 -->
      <defs>
       <path d="M 33.015625 40.375 
Q 26.375 40.375 22.484375 35.828125 
Q 18.609375 31.296875 18.609375 23.390625 
Q 18.609375 15.53125 22.484375 10.953125 
Q 26.375 6.390625 33.015625 6.390625 
Q 39.65625 6.390625 43.53125 10.953125 
Q 47.40625 15.53125 47.40625 23.390625 
Q 47.40625 31.296875 43.53125 35.828125 
Q 39.65625 40.375 33.015625 40.375 
z
M 52.59375 71.296875 
L 52.59375 62.3125 
Q 48.875 64.0625 45.09375 64.984375 
Q 41.3125 65.921875 37.59375 65.921875 
Q 27.828125 65.921875 22.671875 59.328125 
Q 17.53125 52.734375 16.796875 39.40625 
Q 19.671875 43.65625 24.015625 45.921875 
Q 28.375 48.1875 33.59375 48.1875 
Q 44.578125 48.1875 50.953125 41.515625 
Q 57.328125 34.859375 57.328125 23.390625 
Q 57.328125 12.15625 50.6875 5.359375 
Q 44.046875 -1.421875 33.015625 -1.421875 
Q 20.359375 -1.421875 13.671875 8.265625 
Q 6.984375 17.96875 6.984375 36.375 
Q 6.984375 53.65625 15.1875 63.9375 
Q 23.390625 74.21875 37.203125 74.21875 
Q 40.921875 74.21875 44.703125 73.484375 
Q 48.484375 72.75 52.59375 71.296875 
z
" id="DejaVuSans-54"/>
      </defs>
      <g transform="translate(578.374464 398.677188)scale(0.18 -0.18)">
       <use xlink:href="#DejaVuSans-54"/>
       <use x="63.623047" xlink:href="#DejaVuSans-48"/>
       <use x="127.246094" xlink:href="#DejaVuSans-48"/>
      </g>
     </g>
    </g>
    <g id="xtick_8">
     <g id="line2d_8">
      <g>
       <use style="stroke:#000000;stroke-width:0.8;" x="671.739356" xlink:href="#mc7d3997b57" y="378"/>
      </g>
     </g>
     <g id="text_8">
      <!-- 700 -->
      <defs>
       <path d="M 8.203125 72.90625 
L 55.078125 72.90625 
L 55.078125 68.703125 
L 28.609375 0 
L 18.3125 0 
L 43.21875 64.59375 
L 8.203125 64.59375 
z
" id="DejaVuSans-55"/>
      </defs>
      <g transform="translate(654.560606 398.677188)scale(0.18 -0.18)">
       <use xlink:href="#DejaVuSans-55"/>
       <use x="63.623047" xlink:href="#DejaVuSans-48"/>
       <use x="127.246094" xlink:href="#DejaVuSans-48"/>
      </g>
     </g>
    </g>
    <g id="xtick_9">
     <g id="line2d_9">
      <g>
       <use style="stroke:#000000;stroke-width:0.8;" x="747.925498" xlink:href="#mc7d3997b57" y="378"/>
      </g>
     </g>
     <g id="text_9">
      <!-- 800 -->
      <defs>
       <path d="M 31.78125 34.625 
Q 24.75 34.625 20.71875 30.859375 
Q 16.703125 27.09375 16.703125 20.515625 
Q 16.703125 13.921875 20.71875 10.15625 
Q 24.75 6.390625 31.78125 6.390625 
Q 38.8125 6.390625 42.859375 10.171875 
Q 46.921875 13.96875 46.921875 20.515625 
Q 46.921875 27.09375 42.890625 30.859375 
Q 38.875 34.625 31.78125 34.625 
z
M 21.921875 38.8125 
Q 15.578125 40.375 12.03125 44.71875 
Q 8.5 49.078125 8.5 55.328125 
Q 8.5 64.0625 14.71875 69.140625 
Q 20.953125 74.21875 31.78125 74.21875 
Q 42.671875 74.21875 48.875 69.140625 
Q 55.078125 64.0625 55.078125 55.328125 
Q 55.078125 49.078125 51.53125 44.71875 
Q 48 40.375 41.703125 38.8125 
Q 48.828125 37.15625 52.796875 32.3125 
Q 56.78125 27.484375 56.78125 20.515625 
Q 56.78125 9.90625 50.3125 4.234375 
Q 43.84375 -1.421875 31.78125 -1.421875 
Q 19.734375 -1.421875 13.25 4.234375 
Q 6.78125 9.90625 6.78125 20.515625 
Q 6.78125 27.484375 10.78125 32.3125 
Q 14.796875 37.15625 21.921875 38.8125 
z
M 18.3125 54.390625 
Q 18.3125 48.734375 21.84375 45.5625 
Q 25.390625 42.390625 31.78125 42.390625 
Q 38.140625 42.390625 41.71875 45.5625 
Q 45.3125 48.734375 45.3125 54.390625 
Q 45.3125 60.0625 41.71875 63.234375 
Q 38.140625 66.40625 31.78125 66.40625 
Q 25.390625 66.40625 21.84375 63.234375 
Q 18.3125 60.0625 18.3125 54.390625 
z
" id="DejaVuSans-56"/>
      </defs>
      <g transform="translate(730.746748 398.677188)scale(0.18 -0.18)">
       <use xlink:href="#DejaVuSans-56"/>
       <use x="63.623047" xlink:href="#DejaVuSans-48"/>
       <use x="127.246094" xlink:href="#DejaVuSans-48"/>
      </g>
     </g>
    </g>
   </g>
   <g id="matplotlib.axis_2">
    <g id="ytick_1">
     <g id="line2d_10">
      <defs>
       <path d="M 0 0 
L -3.5 0 
" id="m0eef1ab387" style="stroke:#000000;stroke-width:0.8;"/>
      </defs>
      <g>
       <use style="stroke:#000000;stroke-width:0.8;" x="108" xlink:href="#m0eef1ab387" y="354.058048"/>
      </g>
     </g>
     <g id="text_10">
      <!-- 2.5 -->
      <defs>
       <path d="M 10.6875 12.40625 
L 21 12.40625 
L 21 0 
L 10.6875 0 
z
" id="DejaVuSans-46"/>
      </defs>
      <g transform="translate(72.374375 360.896642)scale(0.18 -0.18)">
       <use xlink:href="#DejaVuSans-50"/>
       <use x="63.623047" xlink:href="#DejaVuSans-46"/>
       <use x="95.410156" xlink:href="#DejaVuSans-53"/>
      </g>
     </g>
    </g>
    <g id="ytick_2">
     <g id="line2d_11">
      <g>
       <use style="stroke:#000000;stroke-width:0.8;" x="108" xlink:href="#m0eef1ab387" y="316.493355"/>
      </g>
     </g>
     <g id="text_11">
      <!-- 5.0 -->
      <g transform="translate(72.374375 323.331948)scale(0.18 -0.18)">
       <use xlink:href="#DejaVuSans-53"/>
       <use x="63.623047" xlink:href="#DejaVuSans-46"/>
       <use x="95.410156" xlink:href="#DejaVuSans-48"/>
      </g>
     </g>
    </g>
    <g id="ytick_3">
     <g id="line2d_12">
      <g>
       <use style="stroke:#000000;stroke-width:0.8;" x="108" xlink:href="#m0eef1ab387" y="278.928661"/>
      </g>
     </g>
     <g id="text_12">
      <!-- 7.5 -->
      <g transform="translate(72.374375 285.767255)scale(0.18 -0.18)">
       <use xlink:href="#DejaVuSans-55"/>
       <use x="63.623047" xlink:href="#DejaVuSans-46"/>
       <use x="95.410156" xlink:href="#DejaVuSans-53"/>
      </g>
     </g>
    </g>
    <g id="ytick_4">
     <g id="line2d_13">
      <g>
       <use style="stroke:#000000;stroke-width:0.8;" x="108" xlink:href="#m0eef1ab387" y="241.363968"/>
      </g>
     </g>
     <g id="text_13">
      <!-- 10.0 -->
      <g transform="translate(60.921875 248.202562)scale(0.18 -0.18)">
       <use xlink:href="#DejaVuSans-49"/>
       <use x="63.623047" xlink:href="#DejaVuSans-48"/>
       <use x="127.246094" xlink:href="#DejaVuSans-46"/>
       <use x="159.033203" xlink:href="#DejaVuSans-48"/>
      </g>
     </g>
    </g>
    <g id="ytick_5">
     <g id="line2d_14">
      <g>
       <use style="stroke:#000000;stroke-width:0.8;" x="108" xlink:href="#m0eef1ab387" y="203.799274"/>
      </g>
     </g>
     <g id="text_14">
      <!-- 12.5 -->
      <g transform="translate(60.921875 210.637868)scale(0.18 -0.18)">
       <use xlink:href="#DejaVuSans-49"/>
       <use x="63.623047" xlink:href="#DejaVuSans-50"/>
       <use x="127.246094" xlink:href="#DejaVuSans-46"/>
       <use x="159.033203" xlink:href="#DejaVuSans-53"/>
      </g>
     </g>
    </g>
    <g id="ytick_6">
     <g id="line2d_15">
      <g>
       <use style="stroke:#000000;stroke-width:0.8;" x="108" xlink:href="#m0eef1ab387" y="166.234581"/>
      </g>
     </g>
     <g id="text_15">
      <!-- 15.0 -->
      <g transform="translate(60.921875 173.073175)scale(0.18 -0.18)">
       <use xlink:href="#DejaVuSans-49"/>
       <use x="63.623047" xlink:href="#DejaVuSans-53"/>
       <use x="127.246094" xlink:href="#DejaVuSans-46"/>
       <use x="159.033203" xlink:href="#DejaVuSans-48"/>
      </g>
     </g>
    </g>
    <g id="ytick_7">
     <g id="line2d_16">
      <g>
       <use style="stroke:#000000;stroke-width:0.8;" x="108" xlink:href="#m0eef1ab387" y="128.669888"/>
      </g>
     </g>
     <g id="text_16">
      <!-- 17.5 -->
      <g transform="translate(60.921875 135.508481)scale(0.18 -0.18)">
       <use xlink:href="#DejaVuSans-49"/>
       <use x="63.623047" xlink:href="#DejaVuSans-55"/>
       <use x="127.246094" xlink:href="#DejaVuSans-46"/>
       <use x="159.033203" xlink:href="#DejaVuSans-53"/>
      </g>
     </g>
    </g>
    <g id="ytick_8">
     <g id="line2d_17">
      <g>
       <use style="stroke:#000000;stroke-width:0.8;" x="108" xlink:href="#m0eef1ab387" y="91.105194"/>
      </g>
     </g>
     <g id="text_17">
      <!-- 20.0 -->
      <g transform="translate(60.921875 97.943788)scale(0.18 -0.18)">
       <use xlink:href="#DejaVuSans-50"/>
       <use x="63.623047" xlink:href="#DejaVuSans-48"/>
       <use x="127.246094" xlink:href="#DejaVuSans-46"/>
       <use x="159.033203" xlink:href="#DejaVuSans-48"/>
      </g>
     </g>
    </g>
    <g id="ytick_9">
     <g id="line2d_18">
      <g>
       <use style="stroke:#000000;stroke-width:0.8;" x="108" xlink:href="#m0eef1ab387" y="53.540501"/>
      </g>
     </g>
     <g id="text_18">
      <!-- 22.5 -->
      <g transform="translate(60.921875 60.379095)scale(0.18 -0.18)">
       <use xlink:href="#DejaVuSans-50"/>
       <use x="63.623047" xlink:href="#DejaVuSans-50"/>
       <use x="127.246094" xlink:href="#DejaVuSans-46"/>
       <use x="159.033203" xlink:href="#DejaVuSans-53"/>
      </g>
     </g>
    </g>
   </g>
   <g id="line2d_19">
    <path clip-path="url(#pd7e88ee9a3)" d="M 138.436364 79.154533 
L 139.198225 78.564249 
L 139.960086 74.883552 
L 140.721948 70.056514 
L 142.245671 97.942284 
L 143.007532 74.124572 
L 143.769394 90.192999 
L 144.531255 77.507035 
L 145.293116 80.231109 
L 146.054978 77.679216 
L 146.816839 67.598475 
L 147.578701 73.723363 
L 148.340562 93.220026 
L 149.102423 75.466829 
L 149.864285 79.211223 
L 150.626146 81.975885 
L 151.388008 78.793693 
L 152.149869 66.665455 
L 152.911731 94.555545 
L 153.673592 81.98196 
L 154.435453 71.943155 
L 155.197315 66.905324 
L 156.721038 88.310265 
L 157.482899 84.137663 
L 158.24476 83.931494 
L 159.006622 69.408967 
L 159.768483 89.311153 
L 160.530345 88.957616 
L 161.292206 77.798922 
L 162.054068 81.369745 
L 162.815929 71.147759 
L 163.57779 92.640343 
L 164.339652 92.814553 
L 165.101513 81.15486 
L 165.863375 91.505896 
L 166.625236 82.387564 
L 167.387098 77.911365 
L 168.148959 87.651188 
L 168.91082 72.316674 
L 169.672682 97.963078 
L 170.434543 84.902045 
L 171.196405 74.80361 
L 171.958266 91.192259 
L 172.720127 76.060434 
L 173.481989 105.306334 
L 174.24385 98.800957 
L 175.005712 90.579142 
L 175.767573 91.457851 
L 176.529435 88.257175 
L 177.291296 109.311828 
L 178.053157 105.41339 
L 178.815019 95.119667 
L 179.57688 93.187623 
L 180.338742 90.210238 
L 181.862464 100.376546 
L 182.624326 112.051475 
L 183.386187 95.730531 
L 184.148049 116.850381 
L 184.90991 113.062721 
L 185.671772 117.543022 
L 186.433633 112.51714 
L 187.195494 103.857564 
L 187.957356 115.464888 
L 188.719217 106.612162 
L 189.481079 113.84883 
L 190.24294 118.486146 
L 191.004801 131.068335 
L 191.766663 111.566503 
L 192.528524 127.556131 
L 193.290386 133.369121 
L 194.052247 100.470399 
L 194.814109 131.522972 
L 195.57597 120.485462 
L 196.337831 133.558783 
L 197.099693 131.022612 
L 197.861554 130.225003 
L 198.623416 119.349972 
L 199.385277 135.270545 
L 200.147138 139.239445 
L 200.909 129.75744 
L 201.670861 128.698894 
L 202.432723 129.683606 
L 203.194584 142.892465 
L 203.956446 137.373701 
L 204.718307 165.494182 
L 205.480168 151.004895 
L 206.24203 160.490645 
L 207.003891 163.603691 
L 207.765753 149.091757 
L 208.527614 160.993947 
L 209.289475 176.520684 
L 210.051337 168.838801 
L 210.813198 159.919695 
L 211.57506 162.068052 
L 212.336921 169.728901 
L 213.098783 168.734213 
L 213.860644 173.660247 
L 214.622505 188.396176 
L 215.384367 169.108746 
L 216.146228 183.830739 
L 216.90809 179.650318 
L 217.669951 185.081801 
L 218.431812 188.867403 
L 219.193674 184.003984 
L 219.955535 206.734903 
L 220.717397 198.959254 
L 221.479258 194.307659 
L 222.24112 202.65579 
L 223.002981 198.053153 
L 223.764842 200.794449 
L 224.526704 206.320388 
L 225.288565 219.826871 
L 226.050427 206.135599 
L 226.812288 222.084414 
L 227.57415 216.320257 
L 228.336011 213.65346 
L 229.097872 224.003748 
L 229.859734 227.248126 
L 230.621595 224.408612 
L 231.383457 228.053022 
L 232.145318 230.983012 
L 232.907179 232.470719 
L 233.669041 243.535169 
L 234.430902 231.46621 
L 235.192764 230.4427 
L 235.954625 240.830832 
L 236.716487 246.824955 
L 237.478348 244.456105 
L 238.240209 241.60749 
L 239.002071 251.445412 
L 239.763932 242.897156 
L 240.525794 242.765753 
L 241.287655 246.692089 
L 242.049516 251.283972 
L 242.811378 252.588956 
L 243.573239 251.926904 
L 244.335101 263.22658 
L 245.096962 255.120313 
L 245.858824 252.298373 
L 246.620685 264.507709 
L 247.382546 259.816294 
L 248.144408 264.35382 
L 248.906269 250.325885 
L 249.668131 264.218154 
L 250.429992 268.005058 
L 251.191853 261.525662 
L 251.953715 263.742853 
L 252.715576 265.606061 
L 253.477438 263.595737 
L 254.239299 269.1653 
L 255.001161 267.274179 
L 255.763022 266.673224 
L 256.524883 271.313426 
L 257.286745 265.377138 
L 258.048606 279.104672 
L 258.810468 275.175006 
L 259.572329 275.441149 
L 260.33419 273.544593 
L 261.096052 282.866258 
L 261.857913 275.316937 
L 262.619775 270.400647 
L 263.381636 272.149081 
L 264.143498 292.152406 
L 264.905359 279.006899 
L 265.66722 281.723222 
L 266.429082 282.56883 
L 267.190943 277.208627 
L 267.952805 276.884236 
L 268.714666 276.386175 
L 269.476527 281.289461 
L 270.238389 285.148649 
L 271.00025 285.914524 
L 271.762112 290.03898 
L 272.523973 286.619681 
L 273.285835 282.235916 
L 274.047696 284.492968 
L 274.809557 286.327434 
L 275.571419 290.621387 
L 276.33328 287.824457 
L 277.095142 291.881549 
L 277.857003 294.516537 
L 278.618864 288.988789 
L 279.380726 296.076657 
L 280.142587 294.094127 
L 280.904449 291.427926 
L 281.66631 293.246755 
L 282.428172 289.68648 
L 283.190033 299.551791 
L 283.951894 295.491164 
L 284.713756 295.546152 
L 285.475617 295.241115 
L 286.237479 296.23054 
L 286.99934 296.510497 
L 287.761202 299.685372 
L 288.523063 295.561283 
L 289.284924 294.583097 
L 290.808647 303.977874 
L 291.570509 296.798636 
L 292.33237 305.637777 
L 293.094231 302.789429 
L 293.856093 303.735667 
L 294.617954 301.039008 
L 295.379816 299.735213 
L 296.141677 304.182689 
L 296.903539 303.133307 
L 297.6654 304.897263 
L 298.427261 302.275438 
L 299.189123 305.684682 
L 299.950984 304.185967 
L 300.712846 310.086444 
L 301.474707 305.631666 
L 302.236568 302.021546 
L 302.99843 302.325168 
L 303.760291 311.24799 
L 304.522153 301.661858 
L 306.045876 308.969158 
L 306.807737 310.227381 
L 307.569598 307.519965 
L 308.33146 311.621842 
L 309.093321 307.534597 
L 309.855183 304.90664 
L 310.617044 312.976711 
L 312.140767 307.990427 
L 312.902628 312.063394 
L 313.66449 313.469663 
L 315.188213 307.02042 
L 315.950074 311.857463 
L 316.711935 313.222886 
L 317.473797 310.443129 
L 318.235658 315.47248 
L 318.99752 313.571351 
L 319.759381 316.686743 
L 320.521242 312.964056 
L 321.283104 315.242642 
L 322.044965 314.259263 
L 322.806827 315.334643 
L 323.568688 315.873726 
L 324.33055 317.205997 
L 325.092411 314.482346 
L 325.854272 315.154298 
L 326.616134 317.05788 
L 327.377995 314.957347 
L 328.139857 318.004012 
L 328.901718 317.333291 
L 329.663579 316.028307 
L 330.425441 319.212932 
L 331.187302 320.068094 
L 331.949164 318.898867 
L 332.711025 318.177412 
L 333.472887 321.09503 
L 334.234748 322.197238 
L 334.996609 319.606104 
L 335.758471 322.626617 
L 336.520332 322.057478 
L 337.282194 321.028866 
L 338.044055 322.144359 
L 338.805916 321.678705 
L 339.567778 323.435022 
L 340.329639 321.339694 
L 341.091501 323.716371 
L 341.853362 325.487434 
L 342.615224 325.732442 
L 343.377085 324.364658 
L 344.138946 322.20967 
L 344.900808 326.047205 
L 345.662669 322.379075 
L 346.424531 323.286883 
L 347.186392 326.74825 
L 348.710115 325.797709 
L 349.471976 327.192238 
L 350.233838 327.347465 
L 350.995699 329.570087 
L 352.519422 329.02302 
L 353.281283 331.198934 
L 354.043145 329.765529 
L 354.805006 330.396525 
L 356.328729 332.408558 
L 357.090591 330.959337 
L 357.852452 330.67033 
L 358.614313 334.228289 
L 359.376175 334.150024 
L 360.138036 333.461227 
L 360.899898 333.281929 
L 361.661759 335.02179 
L 362.42362 335.959784 
L 363.185482 335.746513 
L 363.947343 334.237409 
L 365.471066 336.82137 
L 366.232928 336.852835 
L 366.994789 336.100656 
L 367.75665 337.669071 
L 368.518512 338.447396 
L 369.280373 336.722051 
L 370.042235 338.789728 
L 370.804096 340.156116 
L 371.565957 339.384609 
L 373.08968 339.828785 
L 373.851542 340.578566 
L 374.613403 341.022629 
L 375.375265 340.744697 
L 376.137126 341.926294 
L 376.898987 341.339196 
L 377.660849 341.846102 
L 378.42271 341.99244 
L 379.184572 342.293338 
L 380.708294 343.32051 
L 381.470156 343.43135 
L 382.232017 342.760449 
L 382.993879 343.981751 
L 383.75574 344.70908 
L 384.517602 343.617312 
L 385.279463 345.177249 
L 386.041324 344.388629 
L 386.803186 345.488834 
L 388.326909 345.395438 
L 389.850631 345.831593 
L 390.612493 345.490843 
L 392.136216 347.607419 
L 392.898077 346.334032 
L 394.4218 347.354724 
L 395.183661 347.576377 
L 395.945523 347.011478 
L 396.707384 347.547921 
L 397.469246 348.700459 
L 398.231107 348.142979 
L 398.992968 347.780148 
L 399.75483 348.253358 
L 400.516691 348.892596 
L 401.278553 348.675912 
L 402.040414 348.859538 
L 402.802276 349.641573 
L 403.564137 349.582587 
L 404.325998 349.932701 
L 405.08786 349.856954 
L 406.611583 350.15356 
L 407.373444 349.531679 
L 408.135305 349.911033 
L 408.897167 349.870303 
L 409.659028 350.1921 
L 410.42089 350.305921 
L 411.182751 350.833704 
L 411.944613 351.156652 
L 412.706474 350.854334 
L 414.992058 351.625667 
L 415.75392 351.237463 
L 416.515781 351.717946 
L 417.277643 351.827577 
L 418.039504 352.234781 
L 418.801365 352.322492 
L 419.563227 352.238201 
L 420.325088 352.729414 
L 421.08695 352.336365 
L 421.848811 352.449251 
L 422.610672 353.032524 
L 424.134395 352.78419 
L 424.896257 353.399726 
L 425.658118 352.986554 
L 426.41998 353.319349 
L 427.181841 353.437986 
L 428.705564 353.316172 
L 429.467425 354.029646 
L 430.229287 354.364495 
L 430.991148 353.700963 
L 432.514871 353.644273 
L 433.276732 354.024052 
L 434.038594 354.197891 
L 434.800455 354.544606 
L 435.562317 354.010513 
L 436.324178 354.413759 
L 437.086039 354.294749 
L 437.847901 354.616167 
L 438.609762 354.435524 
L 439.371624 354.608547 
L 440.133485 355.053882 
L 440.895346 354.795744 
L 441.657208 355.052258 
L 442.419069 354.974598 
L 443.180931 355.196413 
L 443.942792 355.260966 
L 446.228376 355.02975 
L 446.990238 355.362736 
L 447.752099 355.462742 
L 448.513961 355.858213 
L 450.799545 355.878993 
L 451.561406 355.855622 
L 452.323268 356.037889 
L 453.085129 355.925629 
L 453.846991 356.448676 
L 454.608852 356.546068 
L 455.370713 356.414135 
L 456.132575 356.555921 
L 457.656298 356.588443 
L 458.418159 356.683615 
L 459.18002 356.558076 
L 459.941882 356.705958 
L 460.703743 356.546477 
L 461.465605 356.83266 
L 462.227466 356.742177 
L 463.751189 356.985434 
L 464.51305 357.409479 
L 466.036773 357.128746 
L 467.560496 357.314726 
L 469.084219 357.237408 
L 469.84608 357.505538 
L 470.607942 357.566069 
L 471.369803 357.439661 
L 472.131665 357.740965 
L 472.893526 357.452484 
L 473.655387 357.896687 
L 475.17911 357.559058 
L 476.702833 358.083663 
L 477.464695 357.790002 
L 478.226556 358.086416 
L 478.988417 358.048053 
L 479.750279 358.244655 
L 480.51214 358.016628 
L 481.274002 358.200414 
L 482.797724 358.271165 
L 483.559586 358.577769 
L 484.321447 358.474638 
L 485.84517 358.574936 
L 486.607032 358.430615 
L 487.368893 358.645183 
L 489.654477 358.624087 
L 491.1782 358.912242 
L 491.940061 358.879486 
L 493.463784 359.052462 
L 494.225646 358.964756 
L 494.987507 359.161242 
L 495.749369 358.846726 
L 496.51123 359.114556 
L 497.273091 359.116873 
L 498.796814 359.387683 
L 499.558676 359.231611 
L 502.606121 359.185847 
L 504.891706 359.59202 
L 506.415428 359.554175 
L 507.17729 359.673486 
L 507.939151 359.509455 
L 510.986597 359.819747 
L 512.51032 359.776464 
L 513.272181 359.940649 
L 514.795904 359.896581 
L 515.557765 359.745669 
L 517.081488 360.077734 
L 517.84335 360.030563 
L 520.128934 360.191759 
L 520.890795 360.053679 
L 522.414518 360.276418 
L 523.17638 360.352145 
L 523.938241 360.22445 
L 524.700102 360.220823 
L 525.461964 360.344652 
L 532.318717 360.506499 
L 533.080578 360.68812 
L 536.128024 360.806727 
L 536.889885 360.682892 
L 537.651747 360.734658 
L 538.413608 360.658672 
L 539.937331 360.784704 
L 542.984776 360.900482 
L 543.746638 360.785313 
L 546.032222 360.916083 
L 547.555945 360.913726 
L 548.317806 361.003054 
L 549.079668 360.953583 
L 549.841529 361.085472 
L 551.365252 360.990063 
L 552.888975 361.310725 
L 553.650836 361.111479 
L 555.174559 361.23564 
L 555.936421 361.121543 
L 557.460143 361.376588 
L 558.222005 361.206949 
L 560.507589 361.285745 
L 562.793173 361.196177 
L 564.316896 361.345284 
L 565.078758 361.371719 
L 565.840619 361.277491 
L 567.364342 361.567869 
L 568.126203 361.414812 
L 568.888065 361.476726 
L 569.649926 361.354221 
L 571.173649 361.486095 
L 571.93551 361.585744 
L 573.459233 361.491152 
L 574.221095 361.621112 
L 577.26854 361.646197 
L 578.030402 361.740853 
L 580.315986 361.646943 
L 581.839709 361.680562 
L 587.9346 361.815397 
L 588.696461 361.746338 
L 590.220184 361.811158 
L 593.26763 361.84858 
L 594.029491 361.940057 
L 595.553214 361.915019 
L 597.838798 361.849189 
L 598.60066 362.010383 
L 599.362521 361.89099 
L 600.886244 361.96814 
L 601.648106 361.92568 
L 603.171828 362.071126 
L 605.457413 362.034461 
L 619.170918 362.195411 
L 619.93278 362.112939 
L 620.694641 362.172025 
L 622.218364 362.124946 
L 622.980225 362.270159 
L 634.408147 362.286841 
L 635.170008 362.369622 
L 637.455592 362.377273 
L 642.026761 362.335405 
L 642.788622 362.392938 
L 643.550484 362.337985 
L 644.312345 362.438288 
L 645.074206 362.371207 
L 647.359791 362.459336 
L 650.407236 362.403855 
L 651.169098 362.471646 
L 652.692821 362.376355 
L 654.978405 362.479236 
L 656.502128 362.399699 
L 658.787712 362.500945 
L 660.311435 362.510804 
L 662.597019 362.543249 
L 664.120742 362.513751 
L 670.977495 362.58692 
L 672.501217 362.5765 
L 681.643554 362.602523 
L 683.167277 362.677046 
L 684.691 362.63183 
L 696.880783 362.682681 
L 700.69009 362.755132 
L 703.737536 362.698802 
L 706.02312 362.731149 
L 709.070565 362.716293 
L 710.594288 362.743953 
L 716.68918 362.77794 
L 717.451041 362.709977 
L 718.974764 362.786931 
L 725.831517 362.827615 
L 728.117101 362.809095 
L 730.402685 362.828031 
L 747.163636 362.827304 
L 747.163636 362.827304 
" style="fill:none;stroke:#1f77b4;stroke-linecap:square;stroke-width:1.5;"/>
   </g>
   <g id="line2d_20">
    <path clip-path="url(#pd7e88ee9a3)" d="M 138.436364 363.174545 
L 747.163636 363.174545 
L 747.163636 363.174545 
" style="fill:none;stroke:#ff7f0e;stroke-linecap:square;stroke-width:1.5;"/>
   </g>
   <g id="patch_3">
    <path d="M 108 378 
L 108 51.84 
" style="fill:none;stroke:#000000;stroke-linecap:square;stroke-linejoin:miter;stroke-width:0.8;"/>
   </g>
   <g id="patch_4">
    <path d="M 777.6 378 
L 777.6 51.84 
" style="fill:none;stroke:#000000;stroke-linecap:square;stroke-linejoin:miter;stroke-width:0.8;"/>
   </g>
   <g id="patch_5">
    <path d="M 108 378 
L 777.6 378 
" style="fill:none;stroke:#000000;stroke-linecap:square;stroke-linejoin:miter;stroke-width:0.8;"/>
   </g>
   <g id="patch_6">
    <path d="M 108 51.84 
L 777.6 51.84 
" style="fill:none;stroke:#000000;stroke-linecap:square;stroke-linejoin:miter;stroke-width:0.8;"/>
   </g>
   <g id="legend_1">
    <g id="patch_7">
     <path d="M 261.784688 119.08125 
L 765 119.08125 
Q 768.6 119.08125 768.6 115.48125 
L 768.6 64.44 
Q 768.6 60.84 765 60.84 
L 261.784688 60.84 
Q 258.184688 60.84 258.184688 64.44 
L 258.184688 115.48125 
Q 258.184688 119.08125 261.784688 119.08125 
z
" style="fill:#ffffff;opacity:0.8;stroke:#cccccc;stroke-linejoin:miter;"/>
    </g>
    <g id="line2d_21">
     <path d="M 265.384688 75.417187 
L 301.384688 75.417187 
" style="fill:none;stroke:#1f77b4;stroke-linecap:square;stroke-width:1.5;"/>
    </g>
    <g id="line2d_22"/>
    <g id="text_19">
     <!-- loss curve -->
     <defs>
      <path d="M 9.421875 75.984375 
L 18.40625 75.984375 
L 18.40625 0 
L 9.421875 0 
z
" id="DejaVuSans-108"/>
      <path d="M 30.609375 48.390625 
Q 23.390625 48.390625 19.1875 42.75 
Q 14.984375 37.109375 14.984375 27.296875 
Q 14.984375 17.484375 19.15625 11.84375 
Q 23.34375 6.203125 30.609375 6.203125 
Q 37.796875 6.203125 41.984375 11.859375 
Q 46.1875 17.53125 46.1875 27.296875 
Q 46.1875 37.015625 41.984375 42.703125 
Q 37.796875 48.390625 30.609375 48.390625 
z
M 30.609375 56 
Q 42.328125 56 49.015625 48.375 
Q 55.71875 40.765625 55.71875 27.296875 
Q 55.71875 13.875 49.015625 6.21875 
Q 42.328125 -1.421875 30.609375 -1.421875 
Q 18.84375 -1.421875 12.171875 6.21875 
Q 5.515625 13.875 5.515625 27.296875 
Q 5.515625 40.765625 12.171875 48.375 
Q 18.84375 56 30.609375 56 
z
" id="DejaVuSans-111"/>
      <path d="M 44.28125 53.078125 
L 44.28125 44.578125 
Q 40.484375 46.53125 36.375 47.5 
Q 32.28125 48.484375 27.875 48.484375 
Q 21.1875 48.484375 17.84375 46.4375 
Q 14.5 44.390625 14.5 40.28125 
Q 14.5 37.15625 16.890625 35.375 
Q 19.28125 33.59375 26.515625 31.984375 
L 29.59375 31.296875 
Q 39.15625 29.25 43.1875 25.515625 
Q 47.21875 21.78125 47.21875 15.09375 
Q 47.21875 7.46875 41.1875 3.015625 
Q 35.15625 -1.421875 24.609375 -1.421875 
Q 20.21875 -1.421875 15.453125 -0.5625 
Q 10.6875 0.296875 5.421875 2 
L 5.421875 11.28125 
Q 10.40625 8.6875 15.234375 7.390625 
Q 20.0625 6.109375 24.8125 6.109375 
Q 31.15625 6.109375 34.5625 8.28125 
Q 37.984375 10.453125 37.984375 14.40625 
Q 37.984375 18.0625 35.515625 20.015625 
Q 33.0625 21.96875 24.703125 23.78125 
L 21.578125 24.515625 
Q 13.234375 26.265625 9.515625 29.90625 
Q 5.8125 33.546875 5.8125 39.890625 
Q 5.8125 47.609375 11.28125 51.796875 
Q 16.75 56 26.8125 56 
Q 31.78125 56 36.171875 55.265625 
Q 40.578125 54.546875 44.28125 53.078125 
z
" id="DejaVuSans-115"/>
      <path id="DejaVuSans-32"/>
      <path d="M 48.78125 52.59375 
L 48.78125 44.1875 
Q 44.96875 46.296875 41.140625 47.34375 
Q 37.3125 48.390625 33.40625 48.390625 
Q 24.65625 48.390625 19.8125 42.84375 
Q 14.984375 37.3125 14.984375 27.296875 
Q 14.984375 17.28125 19.8125 11.734375 
Q 24.65625 6.203125 33.40625 6.203125 
Q 37.3125 6.203125 41.140625 7.25 
Q 44.96875 8.296875 48.78125 10.40625 
L 48.78125 2.09375 
Q 45.015625 0.34375 40.984375 -0.53125 
Q 36.96875 -1.421875 32.421875 -1.421875 
Q 20.0625 -1.421875 12.78125 6.34375 
Q 5.515625 14.109375 5.515625 27.296875 
Q 5.515625 40.671875 12.859375 48.328125 
Q 20.21875 56 33.015625 56 
Q 37.15625 56 41.109375 55.140625 
Q 45.0625 54.296875 48.78125 52.59375 
z
" id="DejaVuSans-99"/>
      <path d="M 8.5 21.578125 
L 8.5 54.6875 
L 17.484375 54.6875 
L 17.484375 21.921875 
Q 17.484375 14.15625 20.5 10.265625 
Q 23.53125 6.390625 29.59375 6.390625 
Q 36.859375 6.390625 41.078125 11.03125 
Q 45.3125 15.671875 45.3125 23.6875 
L 45.3125 54.6875 
L 54.296875 54.6875 
L 54.296875 0 
L 45.3125 0 
L 45.3125 8.40625 
Q 42.046875 3.421875 37.71875 1 
Q 33.40625 -1.421875 27.6875 -1.421875 
Q 18.265625 -1.421875 13.375 4.4375 
Q 8.5 10.296875 8.5 21.578125 
z
M 31.109375 56 
z
" id="DejaVuSans-117"/>
      <path d="M 41.109375 46.296875 
Q 39.59375 47.171875 37.8125 47.578125 
Q 36.03125 48 33.890625 48 
Q 26.265625 48 22.1875 43.046875 
Q 18.109375 38.09375 18.109375 28.8125 
L 18.109375 0 
L 9.078125 0 
L 9.078125 54.6875 
L 18.109375 54.6875 
L 18.109375 46.1875 
Q 20.953125 51.171875 25.484375 53.578125 
Q 30.03125 56 36.53125 56 
Q 37.453125 56 38.578125 55.875 
Q 39.703125 55.765625 41.0625 55.515625 
z
" id="DejaVuSans-114"/>
      <path d="M 2.984375 54.6875 
L 12.5 54.6875 
L 29.59375 8.796875 
L 46.6875 54.6875 
L 56.203125 54.6875 
L 35.6875 0 
L 23.484375 0 
z
" id="DejaVuSans-118"/>
      <path d="M 56.203125 29.59375 
L 56.203125 25.203125 
L 14.890625 25.203125 
Q 15.484375 15.921875 20.484375 11.0625 
Q 25.484375 6.203125 34.421875 6.203125 
Q 39.59375 6.203125 44.453125 7.46875 
Q 49.3125 8.734375 54.109375 11.28125 
L 54.109375 2.78125 
Q 49.265625 0.734375 44.1875 -0.34375 
Q 39.109375 -1.421875 33.890625 -1.421875 
Q 20.796875 -1.421875 13.15625 6.1875 
Q 5.515625 13.8125 5.515625 26.8125 
Q 5.515625 40.234375 12.765625 48.109375 
Q 20.015625 56 32.328125 56 
Q 43.359375 56 49.78125 48.890625 
Q 56.203125 41.796875 56.203125 29.59375 
z
M 47.21875 32.234375 
Q 47.125 39.59375 43.09375 43.984375 
Q 39.0625 48.390625 32.421875 48.390625 
Q 24.90625 48.390625 20.390625 44.140625 
Q 15.875 39.890625 15.1875 32.171875 
z
" id="DejaVuSans-101"/>
     </defs>
     <g transform="translate(315.784688 81.717187)scale(0.18 -0.18)">
      <use xlink:href="#DejaVuSans-108"/>
      <use x="27.783203" xlink:href="#DejaVuSans-111"/>
      <use x="88.964844" xlink:href="#DejaVuSans-115"/>
      <use x="141.064453" xlink:href="#DejaVuSans-115"/>
      <use x="193.164062" xlink:href="#DejaVuSans-32"/>
      <use x="224.951172" xlink:href="#DejaVuSans-99"/>
      <use x="279.931641" xlink:href="#DejaVuSans-117"/>
      <use x="343.310547" xlink:href="#DejaVuSans-114"/>
      <use x="384.423828" xlink:href="#DejaVuSans-118"/>
      <use x="443.603516" xlink:href="#DejaVuSans-101"/>
     </g>
    </g>
    <g id="line2d_23">
     <path d="M 265.384688 101.837812 
L 301.384688 101.837812 
" style="fill:none;stroke:#ff7f0e;stroke-linecap:square;stroke-width:1.5;"/>
    </g>
    <g id="line2d_24"/>
    <g id="text_20">
     <!-- optimal loss for uniform angles and ranked labels -->
     <defs>
      <path d="M 18.109375 8.203125 
L 18.109375 -20.796875 
L 9.078125 -20.796875 
L 9.078125 54.6875 
L 18.109375 54.6875 
L 18.109375 46.390625 
Q 20.953125 51.265625 25.265625 53.625 
Q 29.59375 56 35.59375 56 
Q 45.5625 56 51.78125 48.09375 
Q 58.015625 40.1875 58.015625 27.296875 
Q 58.015625 14.40625 51.78125 6.484375 
Q 45.5625 -1.421875 35.59375 -1.421875 
Q 29.59375 -1.421875 25.265625 0.953125 
Q 20.953125 3.328125 18.109375 8.203125 
z
M 48.6875 27.296875 
Q 48.6875 37.203125 44.609375 42.84375 
Q 40.53125 48.484375 33.40625 48.484375 
Q 26.265625 48.484375 22.1875 42.84375 
Q 18.109375 37.203125 18.109375 27.296875 
Q 18.109375 17.390625 22.1875 11.75 
Q 26.265625 6.109375 33.40625 6.109375 
Q 40.53125 6.109375 44.609375 11.75 
Q 48.6875 17.390625 48.6875 27.296875 
z
" id="DejaVuSans-112"/>
      <path d="M 18.3125 70.21875 
L 18.3125 54.6875 
L 36.8125 54.6875 
L 36.8125 47.703125 
L 18.3125 47.703125 
L 18.3125 18.015625 
Q 18.3125 11.328125 20.140625 9.421875 
Q 21.96875 7.515625 27.59375 7.515625 
L 36.8125 7.515625 
L 36.8125 0 
L 27.59375 0 
Q 17.1875 0 13.234375 3.875 
Q 9.28125 7.765625 9.28125 18.015625 
L 9.28125 47.703125 
L 2.6875 47.703125 
L 2.6875 54.6875 
L 9.28125 54.6875 
L 9.28125 70.21875 
z
" id="DejaVuSans-116"/>
      <path d="M 9.421875 54.6875 
L 18.40625 54.6875 
L 18.40625 0 
L 9.421875 0 
z
M 9.421875 75.984375 
L 18.40625 75.984375 
L 18.40625 64.59375 
L 9.421875 64.59375 
z
" id="DejaVuSans-105"/>
      <path d="M 52 44.1875 
Q 55.375 50.25 60.0625 53.125 
Q 64.75 56 71.09375 56 
Q 79.640625 56 84.28125 50.015625 
Q 88.921875 44.046875 88.921875 33.015625 
L 88.921875 0 
L 79.890625 0 
L 79.890625 32.71875 
Q 79.890625 40.578125 77.09375 44.375 
Q 74.3125 48.1875 68.609375 48.1875 
Q 61.625 48.1875 57.5625 43.546875 
Q 53.515625 38.921875 53.515625 30.90625 
L 53.515625 0 
L 44.484375 0 
L 44.484375 32.71875 
Q 44.484375 40.625 41.703125 44.40625 
Q 38.921875 48.1875 33.109375 48.1875 
Q 26.21875 48.1875 22.15625 43.53125 
Q 18.109375 38.875 18.109375 30.90625 
L 18.109375 0 
L 9.078125 0 
L 9.078125 54.6875 
L 18.109375 54.6875 
L 18.109375 46.1875 
Q 21.1875 51.21875 25.484375 53.609375 
Q 29.78125 56 35.6875 56 
Q 41.65625 56 45.828125 52.96875 
Q 50 49.953125 52 44.1875 
z
" id="DejaVuSans-109"/>
      <path d="M 34.28125 27.484375 
Q 23.390625 27.484375 19.1875 25 
Q 14.984375 22.515625 14.984375 16.5 
Q 14.984375 11.71875 18.140625 8.90625 
Q 21.296875 6.109375 26.703125 6.109375 
Q 34.1875 6.109375 38.703125 11.40625 
Q 43.21875 16.703125 43.21875 25.484375 
L 43.21875 27.484375 
z
M 52.203125 31.203125 
L 52.203125 0 
L 43.21875 0 
L 43.21875 8.296875 
Q 40.140625 3.328125 35.546875 0.953125 
Q 30.953125 -1.421875 24.3125 -1.421875 
Q 15.921875 -1.421875 10.953125 3.296875 
Q 6 8.015625 6 15.921875 
Q 6 25.140625 12.171875 29.828125 
Q 18.359375 34.515625 30.609375 34.515625 
L 43.21875 34.515625 
L 43.21875 35.40625 
Q 43.21875 41.609375 39.140625 45 
Q 35.0625 48.390625 27.6875 48.390625 
Q 23 48.390625 18.546875 47.265625 
Q 14.109375 46.140625 10.015625 43.890625 
L 10.015625 52.203125 
Q 14.9375 54.109375 19.578125 55.046875 
Q 24.21875 56 28.609375 56 
Q 40.484375 56 46.34375 49.84375 
Q 52.203125 43.703125 52.203125 31.203125 
z
" id="DejaVuSans-97"/>
      <path d="M 37.109375 75.984375 
L 37.109375 68.5 
L 28.515625 68.5 
Q 23.6875 68.5 21.796875 66.546875 
Q 19.921875 64.59375 19.921875 59.515625 
L 19.921875 54.6875 
L 34.71875 54.6875 
L 34.71875 47.703125 
L 19.921875 47.703125 
L 19.921875 0 
L 10.890625 0 
L 10.890625 47.703125 
L 2.296875 47.703125 
L 2.296875 54.6875 
L 10.890625 54.6875 
L 10.890625 58.5 
Q 10.890625 67.625 15.140625 71.796875 
Q 19.390625 75.984375 28.609375 75.984375 
z
" id="DejaVuSans-102"/>
      <path d="M 54.890625 33.015625 
L 54.890625 0 
L 45.90625 0 
L 45.90625 32.71875 
Q 45.90625 40.484375 42.875 44.328125 
Q 39.84375 48.1875 33.796875 48.1875 
Q 26.515625 48.1875 22.3125 43.546875 
Q 18.109375 38.921875 18.109375 30.90625 
L 18.109375 0 
L 9.078125 0 
L 9.078125 54.6875 
L 18.109375 54.6875 
L 18.109375 46.1875 
Q 21.34375 51.125 25.703125 53.5625 
Q 30.078125 56 35.796875 56 
Q 45.21875 56 50.046875 50.171875 
Q 54.890625 44.34375 54.890625 33.015625 
z
" id="DejaVuSans-110"/>
      <path d="M 45.40625 27.984375 
Q 45.40625 37.75 41.375 43.109375 
Q 37.359375 48.484375 30.078125 48.484375 
Q 22.859375 48.484375 18.828125 43.109375 
Q 14.796875 37.75 14.796875 27.984375 
Q 14.796875 18.265625 18.828125 12.890625 
Q 22.859375 7.515625 30.078125 7.515625 
Q 37.359375 7.515625 41.375 12.890625 
Q 45.40625 18.265625 45.40625 27.984375 
z
M 54.390625 6.78125 
Q 54.390625 -7.171875 48.1875 -13.984375 
Q 42 -20.796875 29.203125 -20.796875 
Q 24.46875 -20.796875 20.265625 -20.09375 
Q 16.0625 -19.390625 12.109375 -17.921875 
L 12.109375 -9.1875 
Q 16.0625 -11.328125 19.921875 -12.34375 
Q 23.78125 -13.375 27.78125 -13.375 
Q 36.625 -13.375 41.015625 -8.765625 
Q 45.40625 -4.15625 45.40625 5.171875 
L 45.40625 9.625 
Q 42.625 4.78125 38.28125 2.390625 
Q 33.9375 0 27.875 0 
Q 17.828125 0 11.671875 7.65625 
Q 5.515625 15.328125 5.515625 27.984375 
Q 5.515625 40.671875 11.671875 48.328125 
Q 17.828125 56 27.875 56 
Q 33.9375 56 38.28125 53.609375 
Q 42.625 51.21875 45.40625 46.390625 
L 45.40625 54.6875 
L 54.390625 54.6875 
z
" id="DejaVuSans-103"/>
      <path d="M 45.40625 46.390625 
L 45.40625 75.984375 
L 54.390625 75.984375 
L 54.390625 0 
L 45.40625 0 
L 45.40625 8.203125 
Q 42.578125 3.328125 38.25 0.953125 
Q 33.9375 -1.421875 27.875 -1.421875 
Q 17.96875 -1.421875 11.734375 6.484375 
Q 5.515625 14.40625 5.515625 27.296875 
Q 5.515625 40.1875 11.734375 48.09375 
Q 17.96875 56 27.875 56 
Q 33.9375 56 38.25 53.625 
Q 42.578125 51.265625 45.40625 46.390625 
z
M 14.796875 27.296875 
Q 14.796875 17.390625 18.875 11.75 
Q 22.953125 6.109375 30.078125 6.109375 
Q 37.203125 6.109375 41.296875 11.75 
Q 45.40625 17.390625 45.40625 27.296875 
Q 45.40625 37.203125 41.296875 42.84375 
Q 37.203125 48.484375 30.078125 48.484375 
Q 22.953125 48.484375 18.875 42.84375 
Q 14.796875 37.203125 14.796875 27.296875 
z
" id="DejaVuSans-100"/>
      <path d="M 9.078125 75.984375 
L 18.109375 75.984375 
L 18.109375 31.109375 
L 44.921875 54.6875 
L 56.390625 54.6875 
L 27.390625 29.109375 
L 57.625 0 
L 45.90625 0 
L 18.109375 26.703125 
L 18.109375 0 
L 9.078125 0 
z
" id="DejaVuSans-107"/>
      <path d="M 48.6875 27.296875 
Q 48.6875 37.203125 44.609375 42.84375 
Q 40.53125 48.484375 33.40625 48.484375 
Q 26.265625 48.484375 22.1875 42.84375 
Q 18.109375 37.203125 18.109375 27.296875 
Q 18.109375 17.390625 22.1875 11.75 
Q 26.265625 6.109375 33.40625 6.109375 
Q 40.53125 6.109375 44.609375 11.75 
Q 48.6875 17.390625 48.6875 27.296875 
z
M 18.109375 46.390625 
Q 20.953125 51.265625 25.265625 53.625 
Q 29.59375 56 35.59375 56 
Q 45.5625 56 51.78125 48.09375 
Q 58.015625 40.1875 58.015625 27.296875 
Q 58.015625 14.40625 51.78125 6.484375 
Q 45.5625 -1.421875 35.59375 -1.421875 
Q 29.59375 -1.421875 25.265625 0.953125 
Q 20.953125 3.328125 18.109375 8.203125 
L 18.109375 0 
L 9.078125 0 
L 9.078125 75.984375 
L 18.109375 75.984375 
z
" id="DejaVuSans-98"/>
     </defs>
     <g transform="translate(315.784688 108.137812)scale(0.18 -0.18)">
      <use xlink:href="#DejaVuSans-111"/>
      <use x="61.181641" xlink:href="#DejaVuSans-112"/>
      <use x="124.658203" xlink:href="#DejaVuSans-116"/>
      <use x="163.867188" xlink:href="#DejaVuSans-105"/>
      <use x="191.650391" xlink:href="#DejaVuSans-109"/>
      <use x="289.0625" xlink:href="#DejaVuSans-97"/>
      <use x="350.341797" xlink:href="#DejaVuSans-108"/>
      <use x="378.125" xlink:href="#DejaVuSans-32"/>
      <use x="409.912109" xlink:href="#DejaVuSans-108"/>
      <use x="437.695312" xlink:href="#DejaVuSans-111"/>
      <use x="498.876953" xlink:href="#DejaVuSans-115"/>
      <use x="550.976562" xlink:href="#DejaVuSans-115"/>
      <use x="603.076172" xlink:href="#DejaVuSans-32"/>
      <use x="634.863281" xlink:href="#DejaVuSans-102"/>
      <use x="670.068359" xlink:href="#DejaVuSans-111"/>
      <use x="731.25" xlink:href="#DejaVuSans-114"/>
      <use x="772.363281" xlink:href="#DejaVuSans-32"/>
      <use x="804.150391" xlink:href="#DejaVuSans-117"/>
      <use x="867.529297" xlink:href="#DejaVuSans-110"/>
      <use x="930.908203" xlink:href="#DejaVuSans-105"/>
      <use x="958.691406" xlink:href="#DejaVuSans-102"/>
      <use x="993.896484" xlink:href="#DejaVuSans-111"/>
      <use x="1055.078125" xlink:href="#DejaVuSans-114"/>
      <use x="1094.441406" xlink:href="#DejaVuSans-109"/>
      <use x="1191.853516" xlink:href="#DejaVuSans-32"/>
      <use x="1223.640625" xlink:href="#DejaVuSans-97"/>
      <use x="1284.919922" xlink:href="#DejaVuSans-110"/>
      <use x="1348.298828" xlink:href="#DejaVuSans-103"/>
      <use x="1411.775391" xlink:href="#DejaVuSans-108"/>
      <use x="1439.558594" xlink:href="#DejaVuSans-101"/>
      <use x="1501.082031" xlink:href="#DejaVuSans-115"/>
      <use x="1553.181641" xlink:href="#DejaVuSans-32"/>
      <use x="1584.96875" xlink:href="#DejaVuSans-97"/>
      <use x="1646.248047" xlink:href="#DejaVuSans-110"/>
      <use x="1709.626953" xlink:href="#DejaVuSans-100"/>
      <use x="1773.103516" xlink:href="#DejaVuSans-32"/>
      <use x="1804.890625" xlink:href="#DejaVuSans-114"/>
      <use x="1846.003906" xlink:href="#DejaVuSans-97"/>
      <use x="1907.283203" xlink:href="#DejaVuSans-110"/>
      <use x="1970.662109" xlink:href="#DejaVuSans-107"/>
      <use x="2024.947266" xlink:href="#DejaVuSans-101"/>
      <use x="2086.470703" xlink:href="#DejaVuSans-100"/>
      <use x="2149.947266" xlink:href="#DejaVuSans-32"/>
      <use x="2181.734375" xlink:href="#DejaVuSans-108"/>
      <use x="2209.517578" xlink:href="#DejaVuSans-97"/>
      <use x="2270.796875" xlink:href="#DejaVuSans-98"/>
      <use x="2334.273438" xlink:href="#DejaVuSans-101"/>
      <use x="2395.796875" xlink:href="#DejaVuSans-108"/>
      <use x="2423.580078" xlink:href="#DejaVuSans-115"/>
     </g>
    </g>
   </g>
  </g>
 </g>
 <defs>
  <clipPath id="pd7e88ee9a3">
   <rect height="326.16" width="669.6" x="108" y="51.84"/>
  </clipPath>
 </defs>
</svg>
